HIERARCHY
ROOT Pelvis
{
	OFFSET 0.000000 0.000000 0.000000
	CHANNELS 6 Xposition Yposition Zposition Xrotation Yrotation Zrotation
	JOINT LeftUpLeg_virtual
	{
		OFFSET 0.000000 0.000000 0.000000
		CHANNELS 3 Xrotation Yrotation Zrotation
		JOINT LeftUpLeg
		{
			OFFSET 8.479700 -4.795502 -0.379100
			CHANNELS 3 Xrotation Yrotation Zrotation
			JOINT LeftLeg
			{
				OFFSET 0.024144 -32.555107 0.112900
				CHANNELS 3 Xrotation Yrotation Zrotation
				JOINT LeftFoot
				{
					OFFSET -0.024144 -32.638630 -3.012600
					CHANNELS 3 Xrotation Yrotation Zrotation
					JOINT LeftToeBase
					{
						OFFSET 0.970200 -13.225400 11.864200
						CHANNELS 3 Xrotation Yrotation Zrotation
						End Site
						{
							OFFSET 0 0 0
						}
					}
				}
			}
		}
	}
	JOINT RightUpLeg_virtual
	{
		OFFSET 0.000000 0.000000 0.000000
		CHANNELS 3 Xrotation Yrotation Zrotation
		JOINT RightUpLeg
		{
			OFFSET -8.479700 -4.795502 -0.379100
			CHANNELS 3 Xrotation Yrotation Zrotation
			JOINT RightLeg
			{
				OFFSET -0.023144 -32.555092 0.112900
				CHANNELS 3 Xrotation Yrotation Zrotation
				JOINT RightFoot
				{
					OFFSET 0.023144 -32.638641 -3.012700
					CHANNELS 3 Xrotation Yrotation Zrotation
					JOINT RightToeBase
					{
						OFFSET -0.970200 -13.225400 11.864200
						CHANNELS 3 Xrotation Yrotation Zrotation
						End Site
						{
							OFFSET 0 0 0
						}
					}
				}
			}
		}
	}
	JOINT Hips_virtual
	{
		OFFSET 0.000000 0.000000 0.000000
		CHANNELS 3 Xrotation Yrotation Zrotation
		JOINT Hips
		{
			OFFSET -0.000000 -0.000000 -0.000000
			CHANNELS 3 Xrotation Yrotation Zrotation
			JOINT Spine
			{
				OFFSET 0.000000 7.722000 1.166200
				CHANNELS 3 Xrotation Yrotation Zrotation
				JOINT Spine1
				{
					OFFSET 0.000000 12.024101 0.248800
					CHANNELS 3 Xrotation Yrotation Zrotation
					JOINT Spine2
					{
						OFFSET 0.000000 11.502998 -0.491200
						CHANNELS 3 Xrotation Yrotation Zrotation
						JOINT Neck_virtual
						{
							OFFSET 0.000000 0.000000 0.000000
							CHANNELS 3 Xrotation Yrotation Zrotation
							JOINT Neck
							{
								OFFSET 0.000000 18.430702 -3.123100
								CHANNELS 3 Xrotation Yrotation Zrotation
								JOINT Head
								{
									OFFSET 0.000000 9.051102 1.034000
									CHANNELS 3 Xrotation Yrotation Zrotation
									End Site
									{
										OFFSET 0 0 0
									}
								}
							}
						}
						JOINT LeftShoulder_virtual
						{
							OFFSET 0.000000 0.000000 0.000000
							CHANNELS 3 Xrotation Yrotation Zrotation
							JOINT LeftShoulder
							{
								OFFSET 6.197800 13.665199 -4.064700
								CHANNELS 3 Xrotation Yrotation Zrotation
								JOINT LeftArm
								{
									OFFSET 7.778100 -0.187103 -1.709300
									CHANNELS 3 Xrotation Yrotation Zrotation
									JOINT LeftForeArm
									{
										OFFSET 22.049376 0.000000 0.000000
										CHANNELS 3 Xrotation Yrotation Zrotation
										JOINT LeftHand
										{
											OFFSET 23.009392 0.000000 0.000000
											CHANNELS 3 Xrotation Yrotation Zrotation
											End Site
											{
												OFFSET 0 0 0
											}
										}
									}
								}
							}
						}
						JOINT RightShoulder_virtual
						{
							OFFSET 0.000000 0.000000 0.000000
							CHANNELS 3 Xrotation Yrotation Zrotation
							JOINT RightShoulder
							{
								OFFSET -6.197800 13.665199 -4.064700
								CHANNELS 3 Xrotation Yrotation Zrotation
								JOINT RightArm
								{
									OFFSET -7.778100 -0.187103 -1.709300
									CHANNELS 3 Xrotation Yrotation Zrotation
									JOINT RightForeArm
									{
										OFFSET -22.049376 0.000000 0.000000
										CHANNELS 3 Xrotation Yrotation Zrotation
										JOINT RightHand
										{
											OFFSET -23.009392 0.000000 0.000000
											CHANNELS 3 Xrotation Yrotation Zrotation
											End Site
											{
												OFFSET 0 0 0
											}
										}
									}
								}
							}
						}
					}
				}
			}
		}
	}
}
MOTION
Frames: 9
Frame Time: 0.03333333
4.650975 80.508728 4.788561 0.000000 0.000000 0.000000 -0.188897 19.092735 6.204704 -19.401197 -6.209734 -5.444538 21.132904 0.761230 -4.527744 -2.133756 10.395674 1.141054 0.000000 0.000000 0.000000 -0.188897 19.092735 6.204704 0.353766 -10.744248 -14.645158 24.067671 -22.091634 1.260005 -3.658148 -30.807848 22.578471 0.000000 0.000000 0.000000 -0.188897 19.092735 6.204704 0.000000 -0.000001 0.000000 0.073757 6.848778 10.804033 8.389053 6.747484 0.422352 0.000000 0.000000 0.000000 0.206957 6.614087 0.368022 -13.227443 -19.480628 1.743817 0.000000 0.000000 0.000000 0.206957 6.614087 0.368022 -0.154067 9.312177 20.132348 -63.723384 6.157088 -31.462460 -41.259195 -20.602969 13.295821 0.000000 0.000000 0.000000 0.206957 6.614087 0.368022 5.429958 9.442471 5.676214 15.856518 -66.495225 55.369919 -0.249014 19.228902 37.981538 0.000000 0.000000 0.000000 
4.634885 80.375519 5.003915 0.000000 0.000000 0.000000 0.419961 23.889522 5.433920 -21.435408 -9.073637 -5.966084 22.140946 -0.246589 -4.794412 -2.113006 9.590275 1.311618 0.000000 0.000000 0.000000 0.419961 23.889522 5.433920 1.331492 -15.340615 -13.517492 22.411594 -21.466731 0.886627 -4.101015 -29.300234 22.518908 0.000000 0.000000 0.000000 0.419961 23.889522 5.433920 0.000000 0.000001 0.000000 -1.156741 7.149883 10.867624 7.340187 7.401385 -0.347059 0.000000 0.000000 0.000000 0.687531 7.224087 -0.473163 -14.981687 -22.379391 3.474323 0.000000 0.000000 0.000000 0.687531 7.224087 -0.473163 -0.958325 11.589824 16.054732 -66.492103 6.731934 -32.420917 -50.068558 -20.341208 15.357171 0.000000 0.000000 0.000000 0.687531 7.224087 -0.473163 5.228957 9.723377 6.084445 10.668936 -68.209411 51.667560 -0.500532 18.866881 38.212385 0.000000 0.000000 0.000000 
4.613946 80.233551 5.180807 0.000000 0.000000 0.000000 1.102453 28.048906 4.707900 -23.394969 -11.779871 -6.665935 23.040535 -0.787663 -5.006898 -2.073091 8.832948 1.362865 0.000000 0.000000 0.000000 1.102453 28.048906 4.707900 2.111680 -20.146808 -12.634675 20.855457 -19.955827 0.603969 -4.817512 -27.609199 22.119703 0.000000 0.000000 0.000000 1.102453 28.048906 4.707900 0.000000 -0.000002 0.000000 -2.197491 7.476171 10.585596 6.409503 8.037283 -1.007987 0.000000 0.000000 0.000000 1.207254 7.779494 -1.226572 -16.665344 -24.736642 4.961178 0.000000 0.000000 0.000000 1.207254 7.779494 -1.226572 -1.386120 13.153981 11.553609 -68.111425 6.494231 -33.152417 -54.982767 -21.210142 14.224123 0.000000 0.000000 0.000000 1.207254 7.779494 -1.226572 5.052231 10.207462 6.320873 6.135795 -67.294541 48.041187 0.327628 18.396966 37.774542 0.000000 0.000000 0.000000 
4.581323 80.108627 5.307584 0.000000 0.000000 0.000000 1.758727 31.002119 4.152463 -25.081957 -14.303266 -7.500839 23.650901 -1.500692 -5.200963 -2.057869 9.299326 1.332581 0.000000 0.000000 0.000000 1.758727 31.002119 4.152463 2.614579 -23.513246 -11.933252 19.768565 -18.951302 0.423167 -5.443784 -26.474266 21.773441 0.000000 0.000000 0.000000 1.758727 31.002119 4.152463 0.000000 0.000002 0.000000 -3.103486 7.820157 10.066950 5.554689 8.658308 -1.589353 0.000000 0.000000 0.000000 1.738243 8.299234 -1.912931 -18.260203 -26.743046 6.305353 0.000000 0.000000 0.000000 1.738243 8.299234 -1.912931 -1.577758 14.389612 6.973790 -69.478016 6.137858 -33.977951 -57.150536 -21.535472 12.111628 0.000000 0.000000 0.000000 1.738243 8.299234 -1.912931 4.894001 10.841099 6.313582 4.878244 -64.300876 47.139104 1.435488 17.723760 37.243533 0.000000 0.000000 0.000000 
4.547560 79.983040 5.425585 0.000000 0.000000 0.000000 2.456127 33.775927 3.580764 -26.731043 -16.558984 -8.368818 24.281572 -1.214099 -5.289820 -2.005819 8.693963 1.168787 0.000000 0.000000 0.000000 2.456127 33.775927 3.580764 3.102817 -26.680657 -11.212900 18.760240 -17.992301 0.263610 -6.025505 -25.416360 21.451141 0.000000 0.000000 0.000000 2.456127 33.775927 3.580764 0.000000 -0.000001 0.000000 -3.790534 8.204267 9.133967 4.795338 9.253633 -2.038450 0.000000 0.000000 0.000000 2.249932 8.768056 -2.484065 -19.555895 -28.328114 7.530705 0.000000 0.000000 0.000000 2.249932 8.768056 -2.484065 -1.621772 15.306785 2.620802 -71.180140 6.283640 -35.271039 -57.708528 -23.005252 6.646878 0.000000 0.000000 0.000000 2.249932 8.768056 -2.484065 4.729927 11.739361 5.847126 6.391979 -59.059164 48.674230 2.395696 16.620051 37.009131 0.000000 0.000000 0.000000 
4.512767 79.857414 5.535402 0.000000 0.000000 0.000000 3.193438 36.378059 2.990720 -28.261030 -18.204807 -9.136070 24.901596 -0.415225 -5.316852 -1.923625 7.136577 0.991759 0.000000 0.000000 0.000000 3.193438 36.378059 2.990720 3.577880 -29.650872 -10.477838 17.828406 -17.086582 0.123206 -6.572252 -24.434069 21.150635 0.000000 0.000000 0.000000 3.193438 36.378059 2.990720 0.000000 0.000004 0.000000 -4.291164 8.588644 7.706463 4.148995 9.738362 -2.313486 0.000000 0.000000 0.000000 2.622313 9.143784 -2.876045 -20.421379 -29.514723 8.606545 0.000000 0.000000 0.000000 2.622313 9.143784 -2.876045 -1.551608 16.133062 -1.361287 -73.331315 7.070535 -36.866458 -56.368038 -25.384581 -0.231587 0.000000 0.000000 0.000000 2.622313 9.143784 -2.876045 4.563270 12.285500 5.226380 6.941748 -52.767419 49.307614 2.904027 16.059745 35.334689 0.000000 0.000000 0.000000 
4.477038 79.732552 5.637547 0.000000 0.000000 0.000000 3.969376 38.816126 2.380618 -29.754671 -19.702572 -9.932792 25.355701 -0.781217 -5.439911 -1.851416 6.776912 0.956839 0.000000 0.000000 0.000000 3.969376 38.816126 2.380618 4.041125 -32.427132 -9.731619 16.968785 -16.239905 -0.000421 -7.091698 -23.525361 20.869631 0.000000 0.000000 0.000000 3.969376 38.816126 2.380618 0.000000 0.000000 0.000000 -4.671539 8.953393 6.006514 3.593088 10.141859 -2.485580 0.000000 0.000000 0.000000 2.909252 9.451909 -3.156952 -22.040554 -30.561128 9.245182 0.000000 0.000000 0.000000 2.909252 9.451909 -3.156952 -1.342546 16.746604 -4.916584 -75.681556 8.665874 -38.500909 -54.216092 -28.224030 -6.744420 0.000000 0.000000 0.000000 2.909252 9.451909 -3.156952 4.418117 12.432828 4.741259 6.136380 -45.548735 48.147899 3.200784 15.611176 32.866775 0.000000 0.000000 0.000000 
4.440542 79.609131 5.732469 0.000000 0.000000 0.000000 4.782610 41.097747 1.748913 -31.211864 -21.065075 -10.751685 25.756599 -1.154122 -5.551049 -1.771414 6.460026 0.915584 0.000000 0.000000 0.000000 4.782610 41.097747 1.748913 4.493725 -35.014060 -8.977008 16.176062 -15.456361 -0.109748 -7.589579 -22.688212 20.606259 0.000000 0.000000 0.000000 4.782610 41.097747 1.748913 0.000000 0.000003 0.000000 -4.916326 9.180092 4.452885 3.339393 10.362819 -2.593821 0.000000 0.000000 0.000000 3.099137 9.611394 -3.324041 -23.397797 -31.140212 9.386109 0.000000 0.000000 0.000000 3.099137 9.611394 -3.324041 -0.965400 17.007813 -7.793443 -77.726412 11.425762 -39.832065 -51.878398 -31.067156 -12.831184 0.000000 0.000000 0.000000 3.099137 9.611394 -3.324041 4.224909 12.867664 4.486713 5.329463 -38.837593 46.365957 4.698904 16.008985 27.128060 0.000000 0.000000 0.000000 
4.403444 79.487709 5.820536 0.000000 0.000000 0.000000 5.631861 43.230309 1.094232 -32.630454 -22.306028 -11.584271 26.106409 -1.526027 -5.653235 -1.683963 6.181975 0.869146 0.000000 0.000000 0.000000 5.631861 43.230309 1.094232 4.938984 -37.417682 -8.214786 15.440713 -14.738992 -0.207145 -8.070849 -21.919750 20.357666 0.000000 0.000000 0.000000 5.631861 43.230309 1.094232 -0.000001 -0.000001 -0.000001 -5.093480 9.326009 3.136662 3.231454 10.504537 -2.704874 0.000000 0.000000 0.000000 3.255602 9.706629 -3.468075 -24.638690 -31.511624 9.306383 0.000000 0.000000 0.000000 3.255602 9.706629 -3.468075 -0.525909 17.246899 -10.596937 -79.108439 14.375694 -40.758280 -49.209973 -33.893239 -17.849871 0.000000 0.000000 0.000000 3.255602 9.706629 -3.468075 4.015194 13.437642 4.299440 3.991902 -33.106405 43.645759 6.559014 16.302229 20.737230 0.000000 0.000000 0.000000 
